# xmcd
#
# Track frame offsets:
#	150
#	16657
#	27716
#	42674
#	57086
#	71473
#	86756
#	100212
#	112177
#	122556
#	137033
#	152136
#	162672
#	175863
#	186729
#	200199
#
# Disc length: 2829 seconds
#
# Revision: 1
# Processed by: cddbd v1.5.2PL0 Copyright (c) Steve Scherf et al.
# Submitted via: EasyCDDAExtractor 11.5.3.1
#
DISCID=f00b0b10
DTITLE=Various Artist - Country Legends CD3
DYEAR=1900
DGENRE=country
TTITLE0=Mickey Gilley - You  Need A Lady In Your Life
TTITLE1=Dottie West - A Lesson In Leavin'
TTITLE2=Georges Jones - I Always Get Lucky With You
TTITLE3=Tom Wopat - Road Home
TTITLE4=Judy Rodman - Heart Of A Gentleman
TTITLE5=Johnny Rodriguez - North Of The Border
TTITLE6=Ronny Robbins - El Paso
TTITLE7=Moe Bandy - Mind Your Own Business
TTITLE8=Stella Parton - Danger Of A Stranger
TTITLE9=Nitty Gritty Dirt Band - Home Again In My Heart
TTITLE10=Ed Bruce - Texas I Die
TTITLE11=Tammy Wynette - Another Chance
TTITLE12=Faren Young - This Little Girl Of Mine
TTITLE13=Porter Wagoner - I Thought I Heard You Calling My Name
TTITLE14=Hoyt Axton - Joy To The World
TTITLE15=Forester Sisters - Dixie Man
EXTD=
EXTT0=
EXTT1=
EXTT2=
EXTT3=
EXTT4=
EXTT5=
EXTT6=
EXTT7=
EXTT8=
EXTT9=
EXTT10=
EXTT11=
EXTT12=
EXTT13=
EXTT14=
EXTT15=
PLAYORDER=
